<svg version="1.1" xmlns="http://www.w3.org/2000/svg" viewBox="0 0 614.3999328613281 433.60003662109375" width="614.3999328613281" height="433.60003662109375">
  <!-- svg-source:excalidraw -->
  
  <defs>
    <style class="style-fonts">
      @font-face {
        font-family: "Virgil";
        src: url("https://excalidraw.com/Virgil.woff2");
      }
      @font-face {
        font-family: "Cascadia";
        src: url("https://excalidraw.com/Cascadia.woff2");
      }
      @font-face {
        font-family: "Assistant";
        src: url("https://excalidraw.com/Assistant-Regular.woff2");
      }
    </style>
    
  </defs>
  <rect x="0" y="0" width="614.3999328613281" height="433.60003662109375" fill="#ffffff"></rect><g stroke-linecap="round" transform="translate(10 10) rotate(0 268.00001525878906 54)"><path d="M27 0 C209.48 1.02, 392.27 0.98, 509 0 M27 0 C164.17 -0.83, 300.74 -1.41, 509 0 M509 0 C525.49 -1.26, 537.53 8.2, 536 27 M509 0 C528.24 -1.28, 534.19 7.76, 536 27 M536 27 C535.42 46.7, 534.58 66, 536 81 M536 27 C536.17 40.86, 535.48 53.96, 536 81 M536 81 C535.61 100.12, 527.51 106.81, 509 108 M536 81 C536.2 101.24, 528.5 107.38, 509 108 M509 108 C400.53 107.39, 291.32 106.95, 27 108 M509 108 C339.23 106.77, 169.03 106.63, 27 108 M27 108 C8 106.88, 1.79 98.6, 0 81 M27 108 C9.06 107.15, -1.77 96.79, 0 81 M0 81 C1.84 68.1, 0.77 54.91, 0 27 M0 81 C0.24 69.11, 0.04 57.94, 0 27 M0 27 C-0.02 9.97, 8.49 -1.06, 27 0 M0 27 C-0.94 7.99, 6.92 0.59, 27 0" stroke="#1e1e1e" stroke-width="2" fill="none"></path></g><g transform="translate(95.79995727539062 24.399993896484375) rotate(0 193.9798583984375 37.5)"><text x="0" y="17.52" font-family="Virgil, Segoe UI Emoji" font-size="20px" fill="#1e1e1e" text-anchor="start" style="white-space: pre;" direction="ltr" dominant-baseline="alphabetic">in this we use a usestate in which we</text><text x="0" y="42.519999999999996" font-family="Virgil, Segoe UI Emoji" font-size="20px" fill="#1e1e1e" text-anchor="start" style="white-space: pre;" direction="ltr" dominant-baseline="alphabetic">change the state ,two button add val,</text><text x="0" y="67.52" font-family="Virgil, Segoe UI Emoji" font-size="20px" fill="#1e1e1e" text-anchor="start" style="white-space: pre;" direction="ltr" dominant-baseline="alphabetic">remove val </text></g><g stroke-linecap="round" transform="translate(193.19998168945312 131.5999298095703) rotate(0 130.79998779296875 55.20000457763672)"><path d="M27.6 0 C85.11 -0.3, 141.25 -3.18, 234 0 C255.27 1.16, 259.58 11.71, 261.6 27.6 C262.8 47.21, 259.41 73.55, 261.6 82.8 C259.99 101.01, 250.68 108.79, 234 110.4 C174.57 109.67, 117.48 109.57, 27.6 110.4 C8.78 107.04, 0.66 98.49, 0 82.8 C0.24 65.63, 2.05 43.73, 0 27.6 C0.74 10.95, 12.04 2.3, 27.6 0" stroke="none" stroke-width="0" fill="#ffec99"></path><path d="M27.6 0 C77.28 -0.24, 124.37 2.2, 234 0 M27.6 0 C87.45 1.6, 147.96 1.69, 234 0 M234 0 C250.41 1.44, 260.92 7.52, 261.6 27.6 M234 0 C253.39 1.82, 262.69 7.94, 261.6 27.6 M261.6 27.6 C263.13 46.3, 260.78 64.76, 261.6 82.8 M261.6 27.6 C262.19 44.3, 261.46 61.82, 261.6 82.8 M261.6 82.8 C259.6 101.52, 253.55 109.3, 234 110.4 M261.6 82.8 C259.85 103, 253.1 108.61, 234 110.4 M234 110.4 C175.19 110.37, 121.03 110.16, 27.6 110.4 M234 110.4 C159.11 109.62, 83.32 109.26, 27.6 110.4 M27.6 110.4 C9.08 109.78, -0.76 102.03, 0 82.8 M27.6 110.4 C8.63 112.18, -1.04 99.62, 0 82.8 M0 82.8 C0.07 66.64, -1.19 48.51, 0 27.6 M0 82.8 C0.4 69.07, -0.54 54.12, 0 27.6 M0 27.6 C1.47 8.85, 9.54 0.96, 27.6 0 M0 27.6 C-2.17 8.88, 9.78 0.54, 27.6 0" stroke="#1971c2" stroke-width="2" fill="none"></path></g><g transform="translate(219.81005859375 174.29993438720703) rotate(0 104.18991088867188 12.5)"><text x="104.18991088867188" y="17.52" font-family="Virgil, Segoe UI Emoji" font-size="20px" fill="#1971c2" text-anchor="middle" style="white-space: pre;" direction="ltr" dominant-baseline="alphabetic">usestate[val,Setval]</text></g><g stroke-linecap="round" transform="translate(13.199981689453125 346.0000915527344) rotate(0 78.80001831054688 37.20002746582031)"><path d="M18.6 0 C48.83 0.87, 80.82 -0.42, 139 0 C149.03 -1.37, 159.24 6.01, 157.6 18.6 C153.43 28.6, 159.38 31.87, 157.6 55.8 C156.41 67.12, 151.75 73.54, 139 74.4 C99.06 75.12, 58.84 71.5, 18.6 74.4 C8.63 73.54, 2.56 67.03, 0 55.8 C0.51 49.3, 1.22 36.33, 0 18.6 C1.28 8.32, 7.27 1.14, 18.6 0" stroke="none" stroke-width="0" fill="#b2f2bb"></path><path d="M18.6 0 C61.85 -0.78, 106.41 -2.66, 139 0 M18.6 0 C61.93 -0.38, 105.99 -0.55, 139 0 M139 0 C149.77 -1.43, 158.82 4.8, 157.6 18.6 M139 0 C152.73 -0.27, 155.45 6.62, 157.6 18.6 M157.6 18.6 C156.5 26.67, 158.2 36.03, 157.6 55.8 M157.6 18.6 C158.47 27.35, 156.89 35.36, 157.6 55.8 M157.6 55.8 C157.62 67.72, 153.24 76.04, 139 74.4 M157.6 55.8 C159.04 66.84, 152.55 75.87, 139 74.4 M139 74.4 C98.76 74.91, 58.04 73.88, 18.6 74.4 M139 74.4 C96.5 72.9, 56.48 72.59, 18.6 74.4 M18.6 74.4 C6.86 74.12, 1.35 70.04, 0 55.8 M18.6 74.4 C6.66 73.14, -1.31 70.05, 0 55.8 M0 55.8 C-0.79 43.53, -1.93 29.11, 0 18.6 M0 55.8 C0.07 45.23, 0.84 35.9, 0 18.6 M0 18.6 C-0.71 5.97, 4.36 1.13, 18.6 0 M0 18.6 C-1.22 7.13, 6.73 -1.77, 18.6 0" stroke="#1e1e1e" stroke-width="2" fill="none"></path></g><g transform="translate(40.550025939941406 370.7001190185547) rotate(0 51.449974060058594 12.5)"><text x="51.449974060058594" y="17.52" font-family="Virgil, Segoe UI Emoji" font-size="20px" fill="#1e1e1e" text-anchor="middle" style="white-space: pre;" direction="ltr" dominant-baseline="alphabetic">add[val+1]</text></g><g stroke-linecap="round" transform="translate(435.5999450683594 347.5999755859375) rotate(0 84.39999389648438 38.000030517578125)"><path d="M19 0 C53.27 5.23, 81.16 4.49, 149.8 0 C165.48 -1.77, 166.44 4.32, 168.8 19 C167.15 30.67, 170.02 41.79, 168.8 57 C171.67 69.45, 160.86 75.95, 149.8 76 C124.24 76.2, 93 74.32, 19 76 C8.17 74.03, 3.16 72.6, 0 57 C0.99 44.07, 3.11 32.15, 0 19 C-0.54 6.97, 7.7 -1.69, 19 0" stroke="none" stroke-width="0" fill="#ffc9c9"></path><path d="M19 0 C66.04 -0.91, 113.58 0.08, 149.8 0 M19 0 C62.59 0.37, 105.53 -0.17, 149.8 0 M149.8 0 C162.18 -1.31, 169.9 4.84, 168.8 19 M149.8 0 C162.24 1.33, 168.3 6.2, 168.8 19 M168.8 19 C168.45 33.47, 166.92 46.69, 168.8 57 M168.8 19 C168.71 31.74, 168.76 43.33, 168.8 57 M168.8 57 C169.97 70.16, 163.8 74.91, 149.8 76 M168.8 57 C167.17 70.87, 161.27 76.69, 149.8 76 M149.8 76 C110.7 76.38, 73.13 78.09, 19 76 M149.8 76 C115.43 76.21, 78.82 76.23, 19 76 M19 76 C6.91 77.68, -0.16 70.59, 0 57 M19 76 C4.86 76.31, 1.22 67.78, 0 57 M0 57 C1.62 45.15, 1.92 33.59, 0 19 M0 57 C-0.69 45.76, 0.37 34.31, 0 19 M0 19 C-0.93 7.32, 7 1.12, 19 0 M0 19 C1.94 4.86, 5.49 2.16, 19 0" stroke="#1e1e1e" stroke-width="2" fill="none"></path></g><g transform="translate(456.3999938964844 373.1000061035156) rotate(0 63.599945068359375 12.5)"><text x="63.599945068359375" y="17.52" font-family="Virgil, Segoe UI Emoji" font-size="20px" fill="#1e1e1e" text-anchor="middle" style="white-space: pre;" direction="ltr" dominant-baseline="alphabetic">remove[val-1]</text></g><g stroke-linecap="round"><g transform="translate(241.8097725206194 246.79998779296875) rotate(0 -61.24609967981348 44.40000915527344)"><path d="M-0.52 -0.99 C-21.04 13.55, -103.37 73.16, -123.6 88.17 M1.41 1.11 C-18.72 15.71, -100.84 74.47, -121.46 89.38" stroke="#1e1e1e" stroke-width="2" fill="none"></path></g><g transform="translate(241.8097725206194 246.79998779296875) rotate(0 -61.24609967981348 44.40000915527344)"><path d="M-107.38 68.73 C-112.53 72.22, -115.61 80.44, -121.46 89.38 M-107.38 68.73 C-111.39 75.21, -117.12 82.83, -121.46 89.38" stroke="#1e1e1e" stroke-width="2" fill="none"></path></g><g transform="translate(241.8097725206194 246.79998779296875) rotate(0 -61.24609967981348 44.40000915527344)"><path d="M-97.4 82.61 C-105.27 82.44, -110.95 87.03, -121.46 89.38 M-97.4 82.61 C-104.62 84.63, -113.59 87.75, -121.46 89.38" stroke="#1e1e1e" stroke-width="2" fill="none"></path></g></g><mask></mask><g stroke-linecap="round"><g transform="translate(354 255.60000610351562) rotate(0 60 30.4000244140625)"><path d="M0.41 -1.07 C20.04 9.04, 99.13 50.57, 118.9 60.89 M-0.84 0.98 C19.05 11.29, 100.66 52.28, 121.03 62.48" stroke="#1e1e1e" stroke-width="2" fill="none"></path></g><g transform="translate(354 255.60000610351562) rotate(0 60 30.4000244140625)"><path d="M96.2 59.58 C104.19 58.8, 115.89 60.17, 121.03 62.48 M96.2 59.58 C104.39 60.75, 111.56 60.4, 121.03 62.48" stroke="#1e1e1e" stroke-width="2" fill="none"></path></g><g transform="translate(354 255.60000610351562) rotate(0 60 30.4000244140625)"><path d="M103.87 44.3 C108.87 49.56, 117.55 56.93, 121.03 62.48 M103.87 44.3 C109.76 50.16, 114.6 54.46, 121.03 62.48" stroke="#1e1e1e" stroke-width="2" fill="none"></path></g></g><mask></mask></svg>